<svg id="Layer_1" data-name="Layer 1" xmlns="http://www.w3.org/2000/svg" viewBox="0 0 294.75 678"><defs><style>.cls-1{fill:#fefefe;}.cls-2{fill:#9a7a31;}.cls-3{fill:#cdbbad;}.cls-4{fill:#ab8e42;}.cls-5{fill:#86601c;}.cls-6{fill:#926f28;}</style></defs><path class="cls-1" d="M1107.62,870.75V879H813.07q0-337.26-.07-674.53c0-2.81.63-3.45,3.44-3.44q130.23.12,260.45.07c-2.16,1.58-5.22.67-7.2,3.24q-38.45,49.91-77.08,99.65t-77.1,99.65Q881.81,447.28,848.18,491c-10.59,13.71-21.28,27.34-31.91,41-1.58,2-3.42,3.75-1.09,6.77,8.54,11,16.81,22.29,25.22,33.43q28.25,37.49,56.51,74.93,23.52,31.2,47,62.43,35.19,46.76,70.37,93.52c17.1,22.7,34.31,45.31,51.24,68.13a13,13,0,0,0,9.72,5.36,34.69,34.69,0,0,0,10.07-.08c3.85.4,7.5-.5,11.11-1.7,1-.5,1.78,1.09,3,0C1101.66,872.59,1104.76,871.86,1107.62,870.75Z" transform="translate(-813 -201)"/><path class="cls-2" d="M1107.62,870.75c-2.86,1.11-6,1.84-8.24,4-1.18,1.12-2-.47-3,0-.26-1.47-.59-2.93-.77-4.4-1.55-13-2.82-26.14-4.67-39.14-2.3-16.07-5.13-32-6.79-48.22s-3.25-32.62-4.1-48.95c-.58-11.06-1.44-22.16-1-33.27.18-4.11-1.18-8.14-.78-12.28A1.42,1.42,0,0,0,1077,687c0-2,0-4,0-6,.08-.08.23-.17.22-.23a3,3,0,0,0-.2-.54c-.49-17.06-2.29-34-3-51.08s-2-33.84-2.62-50.78c-.28-7.28.38-14.76-2-21.88-.15-1,.26-2.62-1.75-1.68-1.48.69-3.31.62-4.26,2.32-1-1.23.75-2.6-.58-3.3s-2.46.29-3.35,1.07c-2.29,2-5,3.87-6.54,6.39-4.94,8-9.74,16.19-14.82,24.16-8.83,13.82-19.57,26-31.11,37.58-1.21,1.21-2.77,1.94-3.77,3.52-3.08,4.81-6.29,9.55-9.66,14.16-4.84,6.61-9.27,13.56-15.22,19.3-1.58,1.52-3.1,2.18-4.8.37-3.33-3.54-7.08-6.66-10.08-10.53-1.72-2.23-3.55-4.44-6.53-5.34-2.64-.8-3.83-3.07-4.34-5.64-.38-1.94-.58-3.91-.86-5.88.07-1.59-.24-3.31.27-4.74,1.32-3.63.11-5.84-3.26-7.22.38-3.09.57-6.22,1.16-9.27,4.94-25.93,16.92-48.63,32.32-69.69,1.74-2.38,1.63-3.72-.07-6-13.24-17.89-23.58-37.28-29.8-58.75a116.14,116.14,0,0,1-3.59-19.78l-3.6,4.05c-2-4.86-2-4.88-5.66-1.17s-7.49,7.3-11.45,10.74c-6.34,5.51-10.93,12.53-16.18,19-16.29,20.05-31.73,40.82-49.62,59.53-1.31,1.37-1.65,2.68-.39,4.28,5.85,7.41,13,13.8,17,22.69,1.69,3.7,5.5,6.38,7.88,9.85s6.6,5.82,7.26,10.53c-4.29-4.17-8.69-8.24-12.85-12.55-6-6.18-12.32-12-18-18.5a244.24,244.24,0,0,0-17.32-17.49c-4-3.76-6.71-11.56-4.84-16.21,1.11-2.78,2.31-5.53,3.66-8.2,6.71-13.31,16.09-24.8,25-36.59,3.51-4.63,7.67-8.9,8.55-15,2.19-3.31,4.58-6.51,6.55-10,12-21,28.09-39,43.4-57.53,3.09-3.74,7-6.93,9.45-11,3.91-6.64,7.9-12.92,15-16.6,3-.63,6-1.23,8.73-2.88,4.57-2.72,8.88-1.23,11.27,3.72.85,1.78,1.74,3.25,3.82,3.6,2.56,5.49,6.16,10.39,8.24,16.22,6.12,17.11,12.2,34.25,20.91,50.29,2.27,4.17,4.43,8.55,5.17,13.18a76.77,76.77,0,0,0,10.8,28.71c4.92,8,7.67,16.94,10.38,25.86.26,1.7.55,3.4.76,5.11.13,1,.54,1.74,1.65,1.43,5-1.39,9.76.39,14.62.85,2.37.23,5,.83,7-1.42,3.92.75,8-1.58,11.89.64.12.07.55-.4.84-.61,1.29-1.08.77-2.56.76-3.86q-.59-67.22.7-134.41c.15-8.58.39-17.17.52-25.75s2.17-17.13.16-25.7c1.37-1.9,1.48-4.1,1.62-6.33.48-7.56,1-15.13,1.73-22.65,1.12-11.94,3.5-23.77,4.92-35.69,1.58-13.31,4.1-26.44,6.45-39.62,1.53-8.51,4-16.85,4.87-25.49a12.77,12.77,0,0,1,4,.49c4.66.92,8.81,3.21,13.21,4.8Z" transform="translate(-813 -201)"/><path class="cls-3" d="M952.6,377.36c-7.06,3.68-11.05,10-15,16.6-2.42,4.11-6.36,7.3-9.45,11-15.31,18.54-31.38,36.5-43.4,57.53-2,3.44-4.36,6.64-6.55,10-2,1.76-3.27,4-4.8,6.15-5.63,7.77-10.37,16.43-17.09,23.1-9.88,9.83-15.21,22.39-22.87,33.52-1.64,2.38-1.33,4.89.84,7.14a56.57,56.57,0,0,1,5,6c11.08,15.06,22.18,30.07,34,44.56,17.43,21.33,34.31,43.12,51,65,19,24.86,39.68,48.34,58.1,73.66,13.41,18.44,27.64,36.26,41.53,54.34q21.2,27.6,41.07,56.17c7.64,11,13.05,23.16,20.2,34.36a34.69,34.69,0,0,1-10.07.08,13,13,0,0,1-9.72-5.36c-16.93-22.82-34.14-45.43-51.24-68.13q-35.21-46.76-70.37-93.52-23.49-31.22-47-62.43-28.24-37.47-56.51-74.93c-8.41-11.14-16.68-22.39-25.22-33.43-2.33-3-.49-4.74,1.09-6.77,10.63-13.68,21.32-27.31,31.91-41q33.71-43.65,67.33-87.35Q954,353.78,992.61,304t77.08-99.65c2-2.57,5-1.66,7.2-3.24h8.25c-.9,3.07-4.08,4.74-5,7.77-1.78,6.23-5.51,11.43-8.8,16.82-10.54,17.26-22.51,33.53-34.62,49.7-8.37,11.17-16.26,22.75-25.35,33.3-9.51,11-20.09,21.16-29.66,32.19C971.55,352.65,961.67,364.68,952.6,377.36Z" transform="translate(-813 -201)"/><path class="cls-4" d="M952.6,377.36c9.07-12.68,18.95-24.71,29.16-36.48,9.57-11,20.15-21.15,29.66-32.19,9.09-10.55,17-22.13,25.35-33.3,12.11-16.17,24.08-32.44,34.62-49.7,3.29-5.39,7-10.59,8.8-16.82.87-3,4-4.7,5-7.77h.75c1.13,1.6,3.26.15,4.49,1.46-.87,8.64-3.34,17-4.87,25.49-2.35,13.18-4.87,26.31-6.45,39.62-1.42,11.92-3.8,23.75-4.92,35.69-.7,7.52-1.25,15.09-1.73,22.65-.14,2.23-.25,4.43-1.62,6.33-.61-4.71-4.14-7.73-6.54-11.4-3-4.59-5.32-4.75-9.19-.44a3.64,3.64,0,0,1-2.85,1.37c1.06-3.37,3.24-6.4,6.44-7.06,3.64-.76,2.84-2.12,1.81-4.22,2.1-6.21,1.14-8.06-5.09-9.86-.35-.11-.67-.33-1-.42-8.31-2.12-16.73-.58-21,8-7,6.52-12.77,14.23-19.14,21.36q-13.9,15.56-27.23,31.63c-3.58,4.31-8.47,7.8-9.73,13.79-1.34,1-.64,2.49-.8,3.76l-.05,3c-2.08-.35-3-1.82-3.82-3.6-2.39-4.95-6.7-6.44-11.27-3.72C958.57,376.13,955.62,376.73,952.6,377.36Z" transform="translate(-813 -201)"/><path class="cls-1" d="M1090.38,202.56c-1.23-1.31-3.36.14-4.49-1.46,6.29,0,12.58.19,18.86-.09,2.73-.12,3.25.78,2.9,3.14a26.84,26.84,0,0,0,0,3.7c-4.4-1.59-8.55-3.88-13.21-4.8A12.77,12.77,0,0,0,1090.38,202.56Z" transform="translate(-813 -201)"/><path class="cls-4" d="M1085.31,876.5c-7.15-11.2-12.56-23.41-20.2-34.36Q1045.19,813.6,1024,786c-13.89-18.08-28.12-35.9-41.53-54.34-18.42-25.32-39.12-48.8-58.1-73.66-16.72-21.89-33.6-43.68-51-65-11.85-14.49-23-29.5-34-44.56a56.57,56.57,0,0,0-5-6c-2.17-2.25-2.48-4.76-.84-7.14,7.66-11.13,13-23.69,22.87-33.52,6.72-6.67,11.46-15.33,17.09-23.1,1.53-2.1,2.82-4.39,4.8-6.15-.88,6.13-5,10.4-8.55,15-8.94,11.79-18.32,23.28-25,36.59-1.35,2.67-2.55,5.42-3.66,8.2-1.87,4.65.83,12.45,4.84,16.21A244.24,244.24,0,0,1,863.16,566c5.68,6.51,12,12.32,18,18.5,4.16,4.31,8.56,8.38,12.85,12.55,7.4,8.05,14.35,16.53,22.38,24,.22,1.65,1.58,2.47,2.57,3.57,6.38,7.12,12.82,14.2,19.14,21.38,4.76,5.42,9.2,11.11,14.09,16.4,5.86,6.35,12.93,11.55,18,18.69,1,1.44,2.46,1.54,4,1.5a59.94,59.94,0,0,0,.8,10c1.87,11.19,4.51,22.16,10,32.19,2.25,4.15,4,8.79,8,11.75l.76,1.5a8.54,8.54,0,0,0,2.23,4.51,37,37,0,0,0,7.17,12.76c7.43,8.29,16.53,14.25,26.64,18.74a69.4,69.4,0,0,0,19.18,5.52c3.39.45,5.5-1.48,8.27-1.72,2.19-.19,4.73-.11,5.1-2.69.46-3.32,3-6.88-.34-10.12-4.1-1.49-7.79-3.46-9.11-8.08,2.14-.18,2.76,1.87,4.14,2.82,1.57,1.09,4.09,2.63,5,1.07,2.1-3.78,6-6.29,7.37-10.34,3.52-10.8,5.18-22,6-33.3.78-10.05,1.15-20.13,1.69-30.2a1.42,1.42,0,0,1,1.31,1.55c-.4,4.14,1,8.17.78,12.28-.48,11.11.38,22.21,1,33.27.85,16.33,2.43,32.65,4.1,48.95s4.49,32.15,6.79,48.22c1.85,13,3.12,26.09,4.67,39.14.18,1.47.51,2.93.77,4.4C1092.81,876,1089.16,876.9,1085.31,876.5Z" transform="translate(-813 -201)"/><path class="cls-1" d="M945.16,461.6l3.6-4.05a116.14,116.14,0,0,0,3.59,19.78c6.22,21.47,16.56,40.86,29.8,58.75,1.7,2.31,1.81,3.65.07,6-15.4,21.06-27.38,43.76-32.32,69.69-.59,3.05-.78,6.18-1.16,9.27a10.69,10.69,0,0,1-1.35-1.25q-30.1-39-60.23-78c-1.51-1.94-1.14-3.05.18-4.75q13.45-17.29,26.74-34.72Q929.65,482,945.16,461.6Z" transform="translate(-813 -201)"/><path class="cls-5" d="M1052.85,756.94c1.32,4.62,5,6.59,9.11,8.08-1.29,1.72-1.64,4.15-3.81,5.24-5-.63-3.3,3.77-4.48,6-1.26,1.32-2.5-.53-3.75,0-3.47-3.21-7.38-5.66-12.19-5.92a30,30,0,0,1-8.68-1.81c-7.12-2.61-12.81-7.47-18.87-11.74a28.1,28.1,0,0,1-3.12-2.6c-3.5-3.85-6.91-7.77-10.36-11.67-.75-1.66-.2-4.19-3-4.49l-.76-1.5a59.91,59.91,0,0,0-4.87-14.19c-5.42-10.8-9.3-22.27-10.27-34.55-.15-2,.41-5.52-3.66-5.2-1.53,0-3-.06-4-1.5-5-7.14-12.11-12.34-18-18.69-4.89-5.29-9.33-11-14.09-16.4-6.32-7.18-12.76-14.26-19.14-21.38-1-1.1-2.35-1.92-2.57-3.57,7.62,2,15.24,4,22.88,6a5.55,5.55,0,0,1,2.93,2.18,10.22,10.22,0,0,0,9.53,3.86c.28,2,.48,3.94.86,5.88.51,2.57,1.7,4.84,4.34,5.64,3,.9,4.81,3.11,6.53,5.34,3,3.87,6.75,7,10.08,10.53,1.7,1.81,3.22,1.15,4.8-.37,5.95-5.74,10.38-12.69,15.22-19.3,3.37-4.61,6.58-9.35,9.66-14.16,1-1.58,2.56-2.31,3.77-3.52,11.54-11.55,22.28-23.76,31.11-37.58,5.08-8,9.88-16.11,14.82-24.16,1.55-2.52,4.25-4.36,6.54-6.39.89-.78,2-1.75,3.35-1.07s-.44,2.07.58,3.3c.95-1.7,2.78-1.63,4.26-2.32,2-.94,1.6.67,1.75,1.68-1.61-.09-2.46,1.11-3.36,2.1-5.35,5.89-10,12.38-14.64,18.8-3.7,4.25-7.93,8.16-11,12.83a240.7,240.7,0,0,0-23.85,46.53c-6,15.68-11.07,31.59-10.11,48.73.42,7.43,2,14.21,7.11,20.2,7,8.17,13.19,16.95,19.78,25.43s13,16.66,19.58,25Z" transform="translate(-813 -201)"/><path class="cls-5" d="M1060.46,310.59c1,2.1,1.83,3.46-1.81,4.22-3.2.66-5.38,3.69-6.44,7.06a1.26,1.26,0,0,0,0,.72q-20.42,26.6-40.81,53.21a13.38,13.38,0,0,0-2.69,4.41,66.5,66.5,0,0,0-.22,35.08c7.92,31.37,20.83,60.31,42.21,85,1.07,1.35,2.07,2.75,3.2,4,5.06,5.79,8.72,12.76,14.79,17.71-.29.21-.72.68-.84.61-3.87-2.22-8,.11-11.89-.64-.76-4.16-6.05-3.09-7.53-6.46,0-.05-.87.3-1.34.43-5,1.31-10.08,2.65-15.13.06-2.71-8.92-5.46-17.88-10.38-25.86a76.77,76.77,0,0,1-10.8-28.71c-.74-4.63-2.9-9-5.17-13.18-8.71-16-14.79-33.18-20.91-50.29-2.08-5.83-5.68-10.73-8.24-16.22,0-1,0-2,.05-3,2.32-.82,1.74-2.25.8-3.76,1.26-6,6.15-9.48,9.73-13.79q13.34-16,27.23-31.63c6.37-7.13,12.1-14.84,19.14-21.36,4.72.91,8.78-.81,12.56-3.31a27.14,27.14,0,0,1,4.76-2c2-.84,3.08-.59,3,1.88a3.07,3.07,0,0,0,3.06,3.49C1058.4,308.47,1059.37,309.61,1060.46,310.59Z" transform="translate(-813 -201)"/><path class="cls-3" d="M1052.85,756.94l.05-.8c0-20.11-.16-40.2-.65-60.3-.54-22.72.16-45.45-.64-68.18-.6-16.73-.18-33.49-.21-50.23,4.69-6.42,9.29-12.91,14.64-18.8.9-1,1.75-2.19,3.36-2.1,2.4,7.12,1.74,14.6,2,21.88.64,16.94,1.87,33.84,2.62,50.78s2.54,34,3,51.08c0,.26,0,.51,0,.77,0,2,0,4,0,6-.54,10.07-.91,20.15-1.69,30.2-.86,11.29-2.52,22.5-6,33.3-1.32,4-5.27,6.56-7.37,10.34-.86,1.56-3.38,0-5-1.07C1055.61,758.81,1055,756.76,1052.85,756.94Z" transform="translate(-813 -201)"/><path class="cls-6" d="M951.73,633a10.22,10.22,0,0,1-9.53-3.86,5.55,5.55,0,0,0-2.93-2.18c-7.64-2-15.26-4-22.88-6-8-7.46-15-15.94-22.38-24-.66-4.71-4.85-7-7.26-10.53s-6.19-6.15-7.88-9.85c-4-8.89-11.16-15.28-17-22.69-1.26-1.6-.92-2.91.39-4.28,17.89-18.71,33.33-39.48,49.62-59.53,5.25-6.47,9.84-13.49,16.18-19,4-3.44,7.77-7,11.45-10.74s3.68-3.69,5.66,1.17Q929.62,482,914.08,502.39q-13.32,17.4-26.74,34.72c-1.32,1.7-1.69,2.81-.18,4.75q30.2,38.91,60.23,78a10.69,10.69,0,0,0,1.35,1.25c3.37,1.38,4.58,3.59,3.26,7.22C951.49,629.72,951.8,631.44,951.73,633Z" transform="translate(-813 -201)"/><path class="cls-3" d="M1052.17,322.59a1.26,1.26,0,0,1,0-.72,3.64,3.64,0,0,0,2.85-1.37c3.87-4.31,6.19-4.15,9.19.44,2.4,3.67,5.93,6.69,6.54,11.4,2,8.57,0,17.14-.16,25.7s-.37,17.17-.52,25.75q-1.18,67.2-.7,134.41c0,1.3.53,2.78-.76,3.86-6.07-4.95-9.73-11.92-14.79-17.71-1.13-1.29-2.13-2.69-3.2-4,1.24-.95.7-2.31.73-3.48.35-14.84.31-29.68.5-44.52.55-41.93.23-83.87.91-125.8C1052.82,325.2,1053.29,323.74,1052.17,322.59Z" transform="translate(-813 -201)"/><path class="cls-6" d="M1031.92,516.06c5,2.59,10.09,1.25,15.13-.06.47-.13,1.32-.48,1.34-.43,1.48,3.37,6.77,2.3,7.53,6.46-2,2.25-4.6,1.65-7,1.42-4.86-.46-9.63-2.24-14.62-.85-1.11.31-1.52-.41-1.65-1.43C1032.47,519.46,1032.18,517.76,1031.92,516.06Z" transform="translate(-813 -201)"/><path class="cls-4" d="M1077.05,681c0-.26,0-.51,0-.77a3,3,0,0,1,.2.54C1077.28,680.87,1077.13,681,1077.05,681Z" transform="translate(-813 -201)"/><path class="cls-6" d="M1060.46,310.59c-1.09-1-2.06-2.12-3.71-2.27a3.07,3.07,0,0,1-3.06-3.49c.08-2.47-1-2.72-3-1.88a27.14,27.14,0,0,0-4.76,2c-3.78,2.5-7.84,4.22-12.56,3.31,4.25-8.56,12.67-10.1,21-8,.35.09.67.31,1,.42C1061.6,302.53,1062.56,304.38,1060.46,310.59Z" transform="translate(-813 -201)"/><path class="cls-2" d="M977.27,375.07c.94,1.51,1.52,2.94-.8,3.76C976.63,377.56,975.93,376.1,977.27,375.07Z" transform="translate(-813 -201)"/><path class="cls-2" d="M1058.15,770.26c2.17-1.09,2.52-3.52,3.81-5.24,3.32,3.24.8,6.8.34,10.12-.37,2.58-2.91,2.5-5.1,2.69-2.77.24-4.88,2.17-8.27,1.72a69.4,69.4,0,0,1-19.18-5.52c-10.11-4.49-19.21-10.45-26.64-18.74a37,37,0,0,1-7.17-12.76l.76,0c3.45,3.9,6.86,7.82,10.36,11.67a28.1,28.1,0,0,0,3.12,2.6,4.37,4.37,0,0,0,1.62,4c4,2.57,7.74,5.42,11.59,8.14,5.05,3.59,11,4.58,16.53,6.81,2.8,1.14,6.58,2.54,10,.51,1.25-.51,2.49,1.34,3.75,0C1056.73,775.44,1057.93,773.22,1058.15,770.26Z" transform="translate(-813 -201)"/><path class="cls-6" d="M974.15,682.58c4.07-.32,3.51,3.23,3.66,5.2,1,12.28,4.85,23.75,10.27,34.55A59.91,59.91,0,0,1,993,736.52c-4.07-3-5.78-7.6-8-11.75-5.46-10-8.1-21-10-32.19A59.94,59.94,0,0,1,974.15,682.58Z" transform="translate(-813 -201)"/><path class="cls-6" d="M996.7,742.51l-.76,0a8.54,8.54,0,0,1-2.23-4.51C996.5,738.32,996,740.85,996.7,742.51Z" transform="translate(-813 -201)"/><path class="cls-1" d="M1051.4,577.43c0,16.74-.39,33.5.21,50.23.8,22.73.1,45.46.64,68.18.49,20.1.64,40.19.65,60.3-6.53-8.33-13.09-16.63-19.58-25s-12.82-17.26-19.78-25.43c-5.11-6-6.69-12.77-7.11-20.2-1-17.14,4.12-33,10.11-48.73a240.7,240.7,0,0,1,23.85-46.53C1043.47,585.59,1047.7,581.68,1051.4,577.43Z" transform="translate(-813 -201)"/><path class="cls-6" d="M1049.92,776.25c-3.42,2-7.2.63-10-.51-5.49-2.23-11.48-3.22-16.53-6.81-3.85-2.72-7.63-5.57-11.59-8.14a4.37,4.37,0,0,1-1.62-4c6.06,4.27,11.75,9.13,18.87,11.74a30,30,0,0,0,8.68,1.81C1042.54,770.59,1046.45,773,1049.92,776.25Z" transform="translate(-813 -201)"/><path class="cls-6" d="M1058.15,770.26c-.22,3-1.42,5.18-4.48,6C1054.85,774,1053.14,769.63,1058.15,770.26Z" transform="translate(-813 -201)"/><path class="cls-1" d="M1052.17,322.59c1.12,1.15.65,2.61.63,3.92-.68,41.93-.36,83.87-.91,125.8-.19,14.84-.15,29.68-.5,44.52,0,1.17.51,2.53-.73,3.48-21.38-24.71-34.29-53.65-42.21-85a66.5,66.5,0,0,1,.22-35.08,13.38,13.38,0,0,1,2.69-4.41Q1031.75,349.18,1052.17,322.59Z" transform="translate(-813 -201)"/></svg>