<svg id="Layer_1" data-name="Layer 1" xmlns="http://www.w3.org/2000/svg" viewBox="0 0 294.75 678"><defs><style>.cls-1{fill:#fefefe;}.cls-2{fill:#9a7a31;}.cls-3{fill:#cdbbad;}.cls-4{fill:#ab8e42;}.cls-5{fill:#86601c;}.cls-6{fill:#926f28;}</style></defs><path class="cls-1" d="M843.29,201.33q130.69,0,261.39-.08c2.57,0,3.07.51,3.07,3.07q-.12,335.81,0,671.6c0,2.56-.5,3.07-3.07,3.07q-143.81-.13-287.61,0c-3.17,0-4.32-.65-3.79-3.84a26.88,26.88,0,0,0,.05-4.49,25.74,25.74,0,0,1,7.74,3.72,3.29,3.29,0,0,0,1,3.25l1.23-3.08,1.18.15c3.6,1.2,7.24,2.11,11.09,1.71a32.64,32.64,0,0,0,10.06.06c3.13-.42,6.43-.84,8.59-3.85,3.27-4.55,6.72-9,10.09-13.45q26.37-35.1,52.75-70.22,41-54.48,82.08-108.94,27.88-37,55.75-74,25.29-33.59,50.59-67.16c1.39-1.85,1.72-3.31.07-5.25-2.9-3.42-5.58-7-8.32-10.57q-21.87-28.42-43.74-56.85-33-42.71-66.19-85.33c-18.14-23.45-36.14-47-54.28-70.44q-40.59-52.45-81.23-104.87A8,8,0,0,0,846,202.1C845.07,202,844,202.36,843.29,201.33Z" transform="translate(-813 -201)"/><path class="cls-2" d="M821.07,874.39a25.74,25.74,0,0,0-7.74-3.72V208.07c1.2.05,2-.81,3-1.23,4.57-1.9,9.1-4,14.19-4.06.59,4.28,1.33,8.52,2.19,12.75,2.85,14,5.85,27.88,7.61,42,1.27,10.19,3.07,20.32,4.38,30.51,1.38,10.82,2.28,21.69,3.28,32.55.36,3.91-.55,8.28,2.11,11.87a32.18,32.18,0,0,0-.68,10.76c.36,6.09.95,12.16,1.12,18.26.56,19.05.39,38.12.71,57.18.53,32.18.17,64.38.26,96.58,0,2.27-.83,4.71.73,6.84,1.58,1.59,2.94.32,4.32-.35.72-.35,1.37-1.44,2.22-.54,1.88,2,4.06,1.1,6.19.87,2.38,2.4,5.26,1.5,8,1.21,3.55-.36,7.26-1.65,10.58-1,4.39.89,4.81-1.38,5.3-4.35a14.18,14.18,0,0,0,.06-1.85,122.55,122.55,0,0,1,14.31-33A36.57,36.57,0,0,0,908.35,470a65,65,0,0,1,4.73-16.81c2.13-4.64,4.81-9,7-13.64,8.88-18.87,13.67-39.49,24.37-57.6A4.26,4.26,0,0,0,948,379c2.79-6.56,5.14-7.57,11.53-4.45a26.36,26.36,0,0,0,8.72,2.93c5,3.32,10,6.55,12.4,12.49a17.46,17.46,0,0,0,3.47,5.7c9.71,9.74,17.58,21,26.64,31.3,12.36,14,21.51,30.18,31.81,45.58.88,6.13,5,10.38,8.53,15,10.29,13.72,21.35,26.91,28,43,2.34,5.72.46,13.68-4.1,17.93-6.09,5.67-12,11.57-17.6,17.73-9.73,10.72-20.14,20.75-30.54,30.79-.1-2.84,2.18-4.34,3.65-6.24,4-5.19,8.25-10.22,12.29-15.39,1.85-2.36,2.19-5.45,4.57-7.79,4.4-4.32,8.12-9.35,12-14.18,1.07-1.34,2.19-3.33.29-4.64-4.09-2.82-6.57-7.11-10.14-10.35C1037,527.17,1027.87,513,1017,500.26c-8.62-10.08-15.61-21.53-25.63-30.45q-5.25-4.67-10.3-9.57c-3.78-3.65-3.8-3.67-5.38,1.49-1.45-.84-1.78-2.87-3.52-3.57-.66,4.11-1.11,8.09-2,12-5.41,24.56-17,46.21-31.69,66.33-1.32,1.8-2,3-.34,5.11a177.85,177.85,0,0,1,20.37,33.54c7,14.58,12.38,29.68,13.54,46-3.36,1.37-4.58,3.58-3.26,7.21.52,1.43.21,3.15.27,4.74-.28,2-.48,3.94-.86,5.88-.51,2.57-1.7,4.84-4.34,5.64-3,.9-4.8,3.11-6.53,5.34-3,3.88-6.76,7-10.08,10.53-1.34,1.44-2.85,1.53-4.24.09-2.33-2.42-5-4.51-6.93-7.32-5.62-8.2-11.16-16.45-16.89-24.56-4-5.71-9.64-10-14.41-15-12.43-13.12-22.32-28-31.5-43.36-3.35-5.62-6.24-11.59-11.94-15.35-3-2-3.63-1.68-3.79,2-1.43-.68-2.87-1.36-4.31-2-2-.92-1.62.64-1.76,1.68-2.38,7-1.68,14.34-2,21.49-.91,18.66-1.89,37.31-3.12,55.95-1,15.4-1.69,30.83-2.52,46.24-.07.08-.22.17-.21.23a2.74,2.74,0,0,0,.23.53v6a1.42,1.42,0,0,0-1.3,1.56c.4,4.13-1,8.16-.78,12.27.48,11.1-1.17,22.16-.77,33.26a10.48,10.48,0,0,1,0,1.12q-1.47,17.06-3,34.1c-.76,8.53-1.3,17.08-2.43,25.56-1.41,10.55-3.54,21-5,31.56-2.2,16.07-4.09,32.19-6.1,48.29l-1.18-.15Z" transform="translate(-813 -201)"/><path class="cls-3" d="M1042.56,472.58c-10.3-15.4-19.45-31.59-31.81-45.58-9.06-10.27-16.93-21.56-26.64-31.3a17.46,17.46,0,0,1-3.47-5.7c-2.41-5.94-7.42-9.17-12.4-12.49a493.57,493.57,0,0,0-46.33-55.2,315.11,315.11,0,0,1-28.66-34.41c-10.38-14.17-21-28.2-31.07-42.56-9.88-14-18.29-28.92-26.38-44h7.49c.68,1,1.78.66,2.73.77a8,8,0,0,1,5.82,3.42Q892.36,258,933.07,310.39c18.14,23.44,36.14,47,54.28,70.44q33,42.71,66.19,85.33,21.95,28.36,43.74,56.85c2.74,3.55,5.42,7.15,8.32,10.57,1.65,1.94,1.32,3.4-.07,5.25q-25.33,33.54-50.59,67.16-27.87,37-55.75,74-41,54.48-82.08,108.94Q890.7,824,864.36,859.18c-3.37,4.48-6.82,8.9-10.09,13.45-2.16,3-5.46,3.43-8.59,3.85a32.64,32.64,0,0,1-10.06-.06,84.3,84.3,0,0,0,7-12.2c4.32-8.85,9.82-17.06,15.42-25.18,18.83-27.29,38.85-53.71,59.32-79.77,15.23-19.38,29.31-39.63,45-58.64,23.61-28.49,45.64-58.25,68.72-87.17,18.33-23,36.58-46,54.28-69.48,3.51-4.65,4-6,.66-11s-6.14-10-9.07-15c-3.7-6.39-8.66-11.76-13.53-17.27-4.67-5.29-8.42-11.41-12.65-17.11C1048.05,480,1045.82,475.88,1042.56,472.58Z" transform="translate(-813 -201)"/><path class="cls-4" d="M835.8,201.33c8.09,15.09,16.5,30,26.38,44,10.12,14.36,20.69,28.39,31.07,42.56a315.11,315.11,0,0,0,28.66,34.41,493.57,493.57,0,0,1,46.33,55.2,26.36,26.36,0,0,1-8.72-2.93c-6.39-3.12-8.74-2.11-11.53,4.45a4.26,4.26,0,0,1-3.55,2.91c0-1,0-2-.05-3-.16-1.28.54-2.73-.8-3.76a8.62,8.62,0,0,0-1.53-4.14Q930.95,358,919.79,345c-6.08-7.08-12.09-14.22-18.35-21.12-4.65-5.12-8.64-10.85-13.91-15.4-1.88-3.61-4.49-7.19-8.35-7.84-4.38-.74-8.86-2.06-13.72.09-5.87,2.6-7.1,3.84-5,10-1.08,2.14-1.76,3.51,1.84,4.22,3,.59,5.2,3.26,5.77,6.66-1.74.57-1.95-1.06-2.75-1.87-2.22-2.25-6-3.12-6.77-1.44-2.38,5-7.8,8.16-8.41,14.17-2.66-3.59-1.75-8-2.11-11.87-1-10.86-1.9-21.73-3.28-32.55-1.31-10.19-3.11-20.32-4.38-30.51-1.76-14.17-4.76-28.09-7.61-42-.86-4.23-1.6-8.47-2.19-12.75,1.23-1.3,3.35.14,4.49-1.45Z" transform="translate(-813 -201)"/><path class="cls-1" d="M835.05,201.33c-1.14,1.59-3.26.15-4.49,1.45-5.09.1-9.62,2.16-14.19,4.06-1,.42-1.84,1.28-3,1.23,0-2.25-.88-5.37.24-6.5s4.25-.24,6.5-.24Z" transform="translate(-813 -201)"/><path class="cls-4" d="M1042.56,472.58c3.26,3.3,5.49,7.37,8.22,11.05,4.23,5.7,8,11.82,12.65,17.11,4.87,5.51,9.83,10.88,13.53,17.27,2.93,5.06,5.79,10.15,9.07,15s2.85,6.3-.66,11c-17.7,23.47-35.95,46.51-54.28,69.48C1008,642.38,986,672.14,962.37,700.63c-15.74,19-29.82,39.26-45,58.64C896.85,785.33,876.83,811.75,858,839c-5.6,8.12-11.1,16.33-15.42,25.18a84.3,84.3,0,0,1-7,12.2c-3.85.4-7.49-.51-11.09-1.71,2-16.1,3.9-32.22,6.1-48.29,1.44-10.55,3.57-21,5-31.56,1.13-8.48,1.67-17,2.43-25.56q1.5-17,3-34.1a10.48,10.48,0,0,0,0-1.12c-.4-11.1,1.25-22.16.77-33.26-.17-4.11,1.18-8.14.78-12.27a1.42,1.42,0,0,1,1.3-1.56c.83,12.29.58,24.65,2.43,36.85s2.15,25,11.31,35.25c2.72,3,4.07,2,6.3.63,1.42-.87,2-3,4.15-2.81-1.33,4.62-5,6.59-9.12,8.07-2.12,2.71-1.81,10.55.9,11.82,2.89,1.36,6.28,2.82,9.22,2.85a41.78,41.78,0,0,0,16.28-3.17c9.2-3.83,18.13-8.16,25.79-14.72,6-5.15,10.91-11.07,13.7-18.58l.84-2.93a1.51,1.51,0,0,0,.76-1.49l1.52-3c2.53-.54,3.33-2.9,4.42-4.68,9.1-14.88,13.47-31.2,14.33-48.54a4.6,4.6,0,0,0,4.62-2.41c1.44-2.15,2.84-4.42,5-6,5.53-4.08,10-9.3,14.59-14.27,8.31-9,15.79-18.82,24.1-27.9,3.22-3.52,7.29-6.43,9.43-10.92,8-7.46,15-15.94,22.37-24,10.4-10,20.81-20.07,30.54-30.79,5.59-6.16,11.51-12.06,17.6-17.73,4.56-4.25,6.44-12.21,4.1-17.93-6.6-16.14-17.66-29.33-28-43C1047.61,483,1043.44,478.71,1042.56,472.58Z" transform="translate(-813 -201)"/><path class="cls-4" d="M821.07,874.39l2.28.17-1.23,3.08A3.29,3.29,0,0,1,821.07,874.39Z" transform="translate(-813 -201)"/><path class="cls-1" d="M972.1,621.11c-1.16-16.32-6.52-31.42-13.54-46a177.85,177.85,0,0,0-20.37-33.54c-1.66-2.1-1-3.31.34-5.11,14.7-20.12,26.28-41.77,31.69-66.33.85-3.88,1.3-7.86,2-12,1.74.7,2.07,2.73,3.52,3.57.93,1.32,1.81,2.67,2.79,3.95q27.35,35.63,54.78,71.19c1.76,2.27,1.52,3.58-.1,5.66-13.56,17.43-27,35-40.53,52.42C985.82,603.69,979.42,612.77,972.1,621.11Z" transform="translate(-813 -201)"/><path class="cls-5" d="M859,765c4.11-1.48,7.79-3.45,9.12-8.07l-.06-.8a5.49,5.49,0,0,0,.81-.71q20.77-26.88,41.52-53.79a9.68,9.68,0,0,0,1.72-2.84,60,60,0,0,0,2-26.48c-2.51-19.25-9.6-37-17.94-54.36-7.05-14.66-14.93-28.79-26.57-40.45-4.17-5.56-8.24-11.2-12.58-16.63-1.41-1.75-2.75-3.94-5.4-4.25.14-1-.22-2.6,1.76-1.68,1.44.66,2.88,1.34,4.31,2,.16-3.7.74-4,3.79-2,5.7,3.76,8.59,9.73,11.94,15.35,9.18,15.41,19.07,30.24,31.5,43.36,4.77,5,10.38,9.32,14.41,15,5.73,8.11,11.27,16.36,16.89,24.56,1.92,2.81,4.6,4.9,6.93,7.32,1.39,1.44,2.9,1.35,4.24-.09,3.32-3.54,7.08-6.65,10.08-10.53,1.73-2.23,3.55-4.44,6.53-5.34,2.64-.8,3.83-3.07,4.34-5.64.38-1.94.58-3.92.86-5.88a10.22,10.22,0,0,0,9.53-3.87,5.59,5.59,0,0,1,2.93-2.17c7.63-1.95,15.25-4,22.86-5.94-2.14,4.49-6.21,7.4-9.43,10.92-8.31,9.08-15.79,18.87-24.1,27.9-4.58,5-9.06,10.19-14.59,14.27-2.14,1.58-3.54,3.85-5,6a4.6,4.6,0,0,1-4.62,2.41c-3.15-.2-2.81,2.38-3,4.13a102.25,102.25,0,0,1-7.47,28.91c-2.82,6.69-7.33,12.72-8.28,20.18l-1.52,3c-1,.13-1.89.29-.76,1.49l-.84,2.93c-1.22.11-1.87,1-2.65,1.81-3.8,4-7.66,7.84-11.5,11.75-1.47,1.1-2.93,2.24-4.44,3.31-7.46,5.3-14.92,10.23-24.74,10.39-3.91.07-7.58,2.78-10.52,5.77l-1.49,0c-1.19-.93-2.9-1.42-2.94-3.33-.07-2.63-1.84-2.76-3.8-2.67C860.6,769.13,860.25,766.71,859,765Z" transform="translate(-813 -201)"/><path class="cls-5" d="M868.06,321.65c-.57-3.4-2.81-6.07-5.77-6.66-3.6-.71-2.92-2.08-1.84-4.22,1.17-1.11,2.29-2.19,4.08-2.33a2.63,2.63,0,0,0,2.62-2.69c-.24-3.93,1.84-3.22,4.14-2.29a20.09,20.09,0,0,1,3.69,1.7c3.78,2.49,7.84,4.22,12.55,3.31,5.27,4.55,9.26,10.28,13.91,15.4,6.26,6.9,12.27,14,18.35,21.12q11.18,13,22.27,26.09a8.73,8.73,0,0,1,1.54,4.14c-1,1.51-1.53,2.94.79,3.76,0,1,0,2,.05,3-10.7,18.11-15.49,38.73-24.37,57.6-2.18,4.62-4.86,9-7,13.64A65,65,0,0,0,908.35,470a36.57,36.57,0,0,1-5.06,13.12,122.55,122.55,0,0,0-14.31,33,18.83,18.83,0,0,1-11.23.58c-2.65-.58-6.55-2.74-8.39,1.94-.11.28-.89.46-1.35.43-2.16-.12-2.77,1.24-3,3-2.13.23-4.31,1.09-6.19-.87-.85-.9-1.5.19-2.22.54-1.38.67-2.74,1.94-4.32.35,7.14-6.29,11.77-14.67,18-21.73,3-4.19,7.08-7.59,9.89-11.81a239.39,239.39,0,0,0,25-48.85c5.61-15,10.37-30.25,9.33-46.61-.47-7.38-2.18-14.12-7.08-20.25-13.15-16.47-25.77-33.38-38.61-50.12Z" transform="translate(-813 -201)"/><path class="cls-3" d="M851.53,556.6c2.65.31,4,2.5,5.4,4.25,4.34,5.43,8.41,11.07,12.58,16.63-.2,18.85,0,37.69-.52,56.54-.8,28.94.12,57.91-.83,86.87-.39,11.73-.12,23.48-.15,35.22l.06.8c-2.14-.18-2.73,1.94-4.15,2.81-2.23,1.36-3.58,2.41-6.3-.63-9.16-10.21-9.44-22.94-11.31-35.25s-1.6-24.56-2.43-36.85v-6c0-.25,0-.51,0-.76.83-15.41,1.51-30.84,2.52-46.24,1.23-18.64,2.21-37.29,3.12-55.95C849.85,570.94,849.15,563.59,851.53,556.6Z" transform="translate(-813 -201)"/><path class="cls-6" d="M1004.43,621.08c-7.61,2-15.23,4-22.86,5.94a5.59,5.59,0,0,0-2.93,2.17,10.22,10.22,0,0,1-9.53,3.87c-.06-1.59.25-3.31-.27-4.74-1.32-3.63-.1-5.84,3.26-7.21,7.32-8.34,13.72-17.42,20.54-26.16,13.57-17.42,27-35,40.53-52.42,1.62-2.08,1.86-3.39.1-5.66q-27.51-35.49-54.78-71.19c-1-1.28-1.86-2.63-2.79-3.95,1.58-5.16,1.6-5.14,5.38-1.49q5.05,4.89,10.3,9.57c10,8.92,17,20.37,25.63,30.45,10.86,12.71,20,26.91,32.45,38.25,3.57,3.24,6,7.53,10.14,10.35,1.9,1.31.78,3.3-.29,4.64-3.88,4.83-7.6,9.86-12,14.18-2.38,2.34-2.72,5.43-4.57,7.79-4,5.17-8.27,10.2-12.29,15.39-1.47,1.9-3.75,3.4-3.65,6.24C1019.4,605.14,1012.46,613.62,1004.43,621.08Z" transform="translate(-813 -201)"/><path class="cls-3" d="M868.06,321.65l.68,1.11c-1.12,1.15-.64,2.61-.63,3.92.13,11.84.24,23.68.41,35.52.51,38.16.08,76.34.92,114.51.14,6.73,0,13.47.09,20.21,0,1.17-.51,2.53.72,3.48-6.21,7.06-10.84,15.44-18,21.73-1.56-2.13-.73-4.57-.73-6.84-.09-32.2.27-64.4-.26-96.58-.32-19.06-.15-38.13-.71-57.18-.17-6.1-.76-12.17-1.12-18.26a32.18,32.18,0,0,1,.68-10.76c.61-6,6-9.18,8.41-14.17.8-1.68,4.55-.81,6.77,1.44C866.11,320.59,866.32,322.22,868.06,321.65Z" transform="translate(-813 -201)"/><path class="cls-6" d="M865,522.11c.24-1.77.85-3.13,3-3,.46,0,1.24-.15,1.35-.43,1.84-4.68,5.74-2.52,8.39-1.94a18.83,18.83,0,0,0,11.23-.58,14.18,14.18,0,0,1-.06,1.85c-.49,3-.91,5.24-5.3,4.35-3.32-.68-7,.61-10.58,1C870.26,523.61,867.38,524.51,865,522.11Z" transform="translate(-813 -201)"/><path class="cls-4" d="M843.86,680.28c0,.25,0,.51,0,.76a2.74,2.74,0,0,1-.23-.53C843.64,680.45,843.79,680.36,843.86,680.28Z" transform="translate(-813 -201)"/><path class="cls-6" d="M887.53,308.47c-4.71.91-8.77-.82-12.55-3.31a20.09,20.09,0,0,0-3.69-1.7c-2.3-.93-4.38-1.64-4.14,2.29a2.63,2.63,0,0,1-2.62,2.69c-1.79.14-2.91,1.22-4.08,2.33-2.09-6.21-.86-7.45,5-10,4.86-2.15,9.34-.83,13.72-.09C883,301.28,885.65,304.86,887.53,308.47Z" transform="translate(-813 -201)"/><path class="cls-2" d="M944.39,379c-2.32-.82-1.74-2.25-.79-3.76C944.93,376.25,944.23,377.7,944.39,379Z" transform="translate(-813 -201)"/><path class="cls-2" d="M869.5,776.23H871c.72,1,1.78.78,2.75.75,6.23-.2,11.87-2.75,17.49-4.94,6-2.34,11.26-6.18,16.34-10.22,1.81-1.45,3.15-2.71,3.12-5.07,3.84-3.91,7.7-7.8,11.5-11.75.78-.82,1.43-1.7,2.65-1.81-2.79,7.51-7.7,13.43-13.7,18.58-7.66,6.56-16.59,10.89-25.79,14.72a41.78,41.78,0,0,1-16.28,3.17c-2.94,0-6.33-1.49-9.22-2.85-2.71-1.27-3-9.11-.9-11.82,1.3,1.73,1.65,4.15,3.81,5.25C863.58,775.12,866.1,777.37,869.5,776.23Z" transform="translate(-813 -201)"/><path class="cls-6" d="M928,735.8c.95-7.46,5.46-13.49,8.28-20.18a102.25,102.25,0,0,0,7.47-28.91c.19-1.75-.15-4.33,3-4.13-.86,17.34-5.23,33.66-14.33,48.54C931.29,732.9,930.49,735.26,928,735.8Z" transform="translate(-813 -201)"/><path class="cls-6" d="M925.68,740.25c-1.13-1.2-.21-1.36.76-1.49A1.51,1.51,0,0,1,925.68,740.25Z" transform="translate(-813 -201)"/><path class="cls-1" d="M868,756.11c0-11.74-.24-23.49.15-35.22,1-29,0-57.93.83-86.87.52-18.85.32-37.69.52-56.54,11.64,11.66,19.52,25.79,26.57,40.45,8.34,17.33,15.43,35.11,17.94,54.36a60,60,0,0,1-2,26.48,9.68,9.68,0,0,1-1.72,2.84q-20.75,26.91-41.52,53.79A5.49,5.49,0,0,1,868,756.11Z" transform="translate(-813 -201)"/><path class="cls-6" d="M910.69,756.74c0,2.36-1.31,3.62-3.12,5.07-5.08,4-10.34,7.88-16.34,10.22-5.62,2.19-11.26,4.74-17.49,4.94-1,0-2,.22-2.75-.75,2.94-3,6.61-5.71,10.52-5.78,9.82-.16,17.28-5.09,24.74-10.39C907.76,759,909.22,757.84,910.69,756.74Z" transform="translate(-813 -201)"/><path class="cls-6" d="M869.5,776.23c-3.4,1.14-5.92-1.11-6.74-6,2-.09,3.73,0,3.8,2.67C866.6,774.81,868.31,775.3,869.5,776.23Z" transform="translate(-813 -201)"/><path class="cls-1" d="M870.25,500.4c-1.23-.95-.71-2.31-.72-3.48-.07-6.74.05-13.48-.09-20.21-.84-38.17-.41-76.35-.92-114.51-.17-11.84-.28-23.68-.41-35.52,0-1.31-.49-2.77.63-3.92,12.84,16.74,25.46,33.65,38.61,50.12,4.9,6.13,6.61,12.87,7.08,20.25,1,16.36-3.72,31.6-9.33,46.61a239.39,239.39,0,0,1-25,48.85C877.33,492.81,873.26,496.21,870.25,500.4Z" transform="translate(-813 -201)"/></svg>